<?xml version="1.0" encoding="utf-8"?>
<!-- Generator: Adobe Illustrator 22.1.0, SVG Export Plug-In . SVG Version: 6.00 Build 0)  -->
<svg version="1.1" id="Layer_1" xmlns="http://www.w3.org/2000/svg" xmlns:xlink="http://www.w3.org/1999/xlink" x="0px" y="0px"
	 viewBox="0 0 765 274.7" style="enable-background:new 0 0 765 274.7;" xml:space="preserve">
<style type="text/css">
	.st0{fill:#B1B3B5;}
	.st1{fill:#231F20;}
	.st2{enable-background:new    ;}
	.st3{fill:none;stroke:#231F20;stroke-width:3;}
	.st4{fill:none;stroke:#231F20;stroke-width:2;}
</style>
<rect x="-0.6" y="-2.8" class="st0" width="765.6" height="277.5"/>
<path class="st1" d="M107.5,112.6v9.5h-2.4v-9.5h-3.8v-1.9h9.8v1.9H107.5z M112.5,122.2h2.4v-6.3h1.9V114h-2
	c-0.1-0.5-0.1-0.7-0.1-0.8c0.1-0.4,0.3-0.6,0.6-0.7c0.8-0.1,1.3,0.3,1.5,0.6l0.8-0.3c0-0.1,0-0.1,0-0.1c-0.4-1.6-1.7-2.1-3.1-2
	s-1.9,1-2.1,2.2c-0.1,0.6,0.1,0.8,0.1,1.3h-1.1v1.8h1.1L112.5,122.2L112.5,122.2z M125.9,116.3c0,2.1,1.1,4.3,3.6,4.3
	c1.2,0,3.2-0.3,3.9-2.8l-3.9,0.4v-1.8l5.5-0.1v5.8h-2.2l0.6-2.8c-0.4,1.6-2.2,3-4.4,3c-3.4,0-5.5-2.5-5.5-6.1c0-3.7,2.7-5.7,5.6-5.8
	c3.1-0.1,5.1,1.6,5.7,4l-1.1,0.4c-0.7-2.4-3-2.9-4.6-2.6C127.2,112.6,125.9,114.5,125.9,116.3z M138.4,114l0.1,2.8
	c0.4-1.8,0.9-3,2.9-3.1c0.6-0.1,1.3,0.1,1.9,0.7c0.9,1,0.5,2.5,0.5,2.5l-2.4,0.6c0.5-1.1,0.2-2.1-0.8-1.9c-1.1,0.1-1.8,1.4-1.8,2.6
	v4h-2.4V114H138.4L138.4,114z M144.7,117.9c0-2.7,1.8-4.2,4-4.3c3.1-0.1,4.6,2,4.6,4.5c0,3.3-2,4.5-4.2,4.5
	C146.3,122.6,144.7,120.6,144.7,117.9z M151.3,117.9c-0.1-2.1-0.7-3-2.4-3c-1.4,0-2.1,1.7-2.1,3c0,1.4,0.4,3.3,2.5,3.3
	C150.8,121.1,151.4,119.6,151.3,117.9z M157.9,119.2c0.1,0.5,0.2,1.3,1.1,1.4c0.8,0.1,1.3-0.4,1.6-0.6l0.4,0.3
	c-0.7,1.6-1.8,2.1-3.3,2s-2-1.4-2-3.1v-3.4c0-0.1-1.5-0.1-1.5-0.1V114h1.5c0,0,0.1-1,0.4-2.3h1.8c0,0,0,0.8,0,2.4h2.4v1.8h-2.4
	V119.2z M170.4,118.4H164c0.1,1.4,0.6,2.8,2.3,2.8c0.9,0.1,2.4-0.2,3-1.9l0.8,0.1c-0.2,1.9-1.7,3.1-3.8,3.1c-2.8,0-4.3-2.1-4.3-4.7
	c0-2.7,1.8-4.2,4-4.3C169.1,113.5,170.5,115.7,170.4,118.4z M166,114.9c-1.1,0.1-1.6,1.1-1.8,2.1h4.3
	C168.4,115.5,167.6,114.8,166,114.9z M175,122.5c-1.9,0.1-4-1-3.8-3.5l2.1,0.3c-0.1,1.1,0.3,1.9,1.6,1.9c1.8,0.1,2.3-1.9,0.9-2.4
	c-0.9-0.3-1.3-0.1-2.8-0.5c-1.3-0.3-1.8-1.6-1.6-2.4c0.2-1,1.4-2.3,3.3-2.3c2.1,0,3.6,0.9,3.6,2.8l-1.7,0.3c0-0.7-0.3-1.9-1.8-1.8
	c-0.9,0.1-1.3,0.7-1.3,1.1c-0.1,0.5,0.1,1.1,0.9,1.3c1.8,0.3,1.6,0.1,2.9,0.5c1.1,0.3,1.5,1.3,1.3,2.4
	C178.6,121.5,176.9,122.4,175,122.5z M183,118.2h-0.3v4h-2.4v-11.4h2.4v6.8c1.6-0.1,3.2-1.4,3.2-3.6h2.4c0,1.7-1.4,3.1-3.2,3.7
	l4.1,4.4h-2.5L183,118.2z M204.9,122.2c-0.8,0-1.2-0.1-1.9-0.8c-0.9,0.6-2.1,1-3.2,1c-2.1,0-3.8-1-3.8-2.9c0-1.3,1.1-2.5,2.6-2.9
	c-0.8-0.3-1.8-1.5-1.8-2.6c0-1.4,1.4-2.6,3.6-2.6c2.2,0,3.6,0.9,3.6,2.4c0,1.7-1.1,2.5-2.9,3c0.6,0.6,1.3,1.5,1.9,2.3
	c0.6-0.5,1.2-1.3,0.6-2.5l0.6-0.2c0.5,0.3,0.8,1.1,0.9,1.5c0.1,0.9-0.3,1.7-0.9,2.4c0.2,0.1,0.3,0.2,0.5,0.2
	c0.9,0.2,1.3-0.3,1.3-1.1l0.6,0.2C207,120.6,206.6,122.2,204.9,122.2z M200,120.6c0.7,0,1.3-0.3,1.7-0.5c-0.1-0.1-0.3-0.3-0.4-0.4
	c-0.4-0.5-1.3-1.5-1.9-2.2c-0.7,0.3-1,1.3-0.9,1.9C198.3,120.2,199.1,120.6,200,120.6z M199.2,114c0,0.8,0.6,1.6,1.1,1.9
	c1.1-0.3,1.4-1.3,1.4-1.9s-0.2-1.4-1.3-1.4C199.4,112.6,199.2,113.4,199.2,114z M220.8,112.3h-1.3c-0.1,0.3-2.6,8.5-2.6,8.5l0.9,0.1
	l-0.3,1.5l-3.8-0.5l0.4-1.5l0.9,0.1l2.6-8.4l-1.7-0.1l0.1-1.4l5.4,0.1L220.8,112.3z M224.3,115.8h-2.1l0.6-1.8h2l1.3-4.1l1.9,0.5
	l-1.1,3.7h2.3l-0.5,1.8h-2.3l-1.6,7l-2-0.3L224.3,115.8z M235.5,123.5l1.9,0.3c0-1.8-0.2-2.7-0.2-3.9c0-1.1,0-1.8,0.2-2.7
	c0.1-0.6,0.7-2.6,0.8-2.8l-1.8-0.8l-0.3,0.7c-0.9-0.3-2-0.2-2.6,0c-1.3,0.4-2.5,1.4-3.4,2.4c-0.5,0.5-1.1,1.8-1.1,2.5
	c-0.1,0.8,0.4,1.8,1,2.3c0.4,0.3,1.4,0.8,2.3,0.8c1.3-0.1,1.8-0.6,2.9-1.7C235.3,122.6,235.3,121.9,235.5,123.5z M232,117.5
	c0.9-1.2,1.2-1.3,2.5-1.9c0.5-0.3,0.9-0.3,1.1-0.2c0.1,0.2-0.9,2.6-1.4,3.5c-0.6,0.8-1.6,2.1-2.3,1.9c-0.6-0.1-0.6-0.7-0.6-1.4
	C231.2,119,231.6,118.1,232,117.5z M241.4,110.7l1.8,0.4l-2.5,11.1l-1.8-0.3L241.4,110.7z M248,114.4l-1.8-0.3
	c-0.9,6.3-1.4,7.9-1.4,8l1.9,0.3C246.7,122.4,248.2,114.5,248,114.4z M246.5,112.5l1.6,0.4l0.4-1.6l-1.6-0.4L246.5,112.5z
	 M250.4,115.2c-0.8,0.9-1.8,2.6-1.8,3.9c-0.1,1.9,0.4,3,2.1,3.5c1.5,0.4,3.7-0.6,4.8-2.2l-1.6-0.7c-0.9,1-1.4,1.1-2.1,1.1
	c-1.4,0-1.4-1.6-0.7-3c0.7-1.3,1.4-2.5,2.8-2.5c0.8,0,0.9,1,0.4,2l1.8,0.3c0.8-2.2,0.1-3.6-1.7-4
	C253.1,113.5,251.4,113.9,250.4,115.2z M263.3,112c0-0.6,0.6-1.2,1.3-1.2s1.2,0.6,1.2,1.2c0,0.7-0.6,1.3-1.2,1.3
	C263.9,113.2,263.3,112.6,263.3,112z M265.6,114v8.2h-2.2V114H265.6z M270.6,122.5c-1.9,0.1-4-1-3.8-3.5l2.1,0.3
	c-0.1,1.1,0.3,1.9,1.6,1.9c1.8,0.1,2.3-1.9,0.9-2.4c-0.9-0.3-1.3-0.1-2.8-0.5c-1.3-0.3-1.8-1.6-1.6-2.4c0.2-1,1.4-2.3,3.3-2.3
	c2.1,0,3.6,0.9,3.6,2.8l-1.7,0.3c0-0.7-0.3-1.9-1.8-1.8c-0.9,0.1-1.3,0.7-1.3,1.1c-0.1,0.5,0.1,1.1,0.9,1.3c1.8,0.3,1.6,0.1,2.9,0.5
	c1.1,0.3,1.5,1.3,1.3,2.4C274.2,121.5,272.6,122.4,270.6,122.5z M283.7,117.9c0,1.3,0.6,3,2.5,3.1c1.1,0,2.5-0.3,2.9-2.3l0.9,0.2
	c-0.2,2.5-2.1,3.6-4,3.6c-2.6,0-4.5-2-4.5-4.6c0-2.7,2-4.2,4.1-4.3c2.3-0.1,3.8,1.1,4.2,3l-0.8,0.3c-0.5-1.8-2.1-2.3-3.4-1.9
	C284.2,115.4,283.7,116.6,283.7,117.9z M299.9,114v8.2h-2.5l0.3-2.5c-0.3,1.3-1.5,2.7-3.3,2.7c-1.7,0-3-1.2-3-4.3l-0.1-4.1h2.3v4.1
	c0,1.3,0.4,2.5,1.8,2.5s2.3-0.9,2.2-4.1V114L299.9,114L299.9,114L299.9,114z M303.3,114l0.1,2.8c0.4-1.8,0.9-3,2.9-3.1
	c0.6-0.1,1.3,0.1,1.9,0.7c0.9,1,0.5,2.5,0.5,2.5l-2.4,0.6c0.5-1.1,0.2-2.1-0.8-1.9c-1.1,0.1-1.8,1.4-1.8,2.6v4h-2.4V114H303.3
	L303.3,114z M312,114l0.1,2.8c0.4-1.8,0.9-3,2.9-3.1c0.6-0.1,1.3,0.1,1.9,0.7c0.9,1,0.5,2.5,0.5,2.5l-2.4,0.6
	c0.5-1.1,0.2-2.1-0.8-1.9c-1.1,0.1-1.8,1.4-1.8,2.6v4H310V114H312L312,114z M326.7,118.4h-6.3c0.1,1.4,0.6,2.8,2.3,2.8
	c0.9,0.1,2.4-0.2,3-1.9l0.8,0.1c-0.2,1.9-1.7,3.1-3.8,3.1c-2.8,0-4.3-2.1-4.3-4.7c0-2.7,1.8-4.2,4-4.3
	C325.3,113.5,326.8,115.7,326.7,118.4z M322.2,114.9c-1.1,0.1-1.6,1.1-1.8,2.1h4.3C324.6,115.5,323.8,114.8,322.2,114.9z M330,114
	l-0.1,2.5c0.3-1.3,1.4-2.7,3.3-2.7c1.7,0,3.6,1.3,3.6,4.3c0,0.6,0.1,3.4,0.1,4.1h-2.4c0-0.6,0-2.4,0-4.1c0-1.3-0.9-2.5-2.3-2.5
	s-2.3,1.3-2.3,2.7l0.1,3.9h-2.4V114L330,114L330,114L330,114z M341.6,119.2c0.1,0.5,0.2,1.3,1.1,1.4c0.8,0.1,1.3-0.4,1.6-0.6
	l0.4,0.3c-0.7,1.6-1.8,2.1-3.3,2s-2-1.4-2-3.1v-3.4c0-0.1-1.5-0.1-1.5-0.1V114h1.5c0,0,0.1-1,0.4-2.3h1.8c0,0,0,0.8,0,2.4h2.4v1.8
	h-2.4V119.2z M347.7,122.3c-1,0-1.6-0.8-1.6-1.8v-9.8h1.9c0.1,0,0,8.9,0,9.5c0.1,0.7,0.6,0.6,1.1,0.5l0.4,0.7
	C349.2,122,348.7,122.3,347.7,122.3z M354.6,125.9c-2.1,0-3.6-1.3-3.7-3l0.7-0.3c1.1,1.2,1.8,1.4,3,1.4c1.7,0,2.7-1.3,2.7-4.3
	c-0.3,1.3-1.5,2.7-3.3,2.7c-1.7,0-3-1.2-3-4.3c0-0.6-0.1-3.4-0.1-4.1h2.3v4.1c0,1.3,0.4,2.5,1.8,2.5s2.3-0.9,2.2-4.1V114h2.4
	c0,2.7-0.1,5.5-0.3,8.2C358.9,124.8,356.9,125.9,354.6,125.9z M366.5,117.9c0-2.7,1.8-4.2,4-4.3c3.1-0.1,4.6,2,4.6,4.5
	c0,3.3-2,4.5-4.2,4.5C368,122.6,366.5,120.6,366.5,117.9z M372.9,117.9c-0.1-2.1-0.7-3-2.4-3c-1.4,0-2.1,1.7-2.1,3
	c0,1.4,0.4,3.3,2.5,3.3C372.5,121.1,373.1,119.6,372.9,117.9z M378.8,120.7l0.1,4.7h-2.6V114h2.4l-0.1,2.5c0.3-1.3,1.4-2.7,3.3-2.7
	c1.7,0,3.6,1.3,3.6,4.3c0,1.6-1.1,4.3-3.8,4.3C380.3,122.3,379.1,121.8,378.8,120.7z M383,118c0-1.3-0.9-2.5-2.3-2.5
	s-2.3,1.3-2.3,2.7c0,1.4,0.9,2.8,2.3,2.8C382.3,121.1,383,119.5,383,118z M394.6,118.4h-6.3c0.1,1.4,0.6,2.8,2.3,2.8
	c0.9,0.1,2.4-0.2,3-1.9l0.8,0.1c-0.2,1.9-1.7,3.1-3.8,3.1c-2.8,0-4.3-2.1-4.3-4.7c0-2.7,1.8-4.2,4-4.3
	C393.2,113.5,394.7,115.7,394.6,118.4z M390.1,114.9c-1.1,0.1-1.6,1.1-1.8,2.1h4.3C392.5,115.5,391.7,114.8,390.1,114.9z M397.9,114
	l-0.1,2.5c0.3-1.3,1.4-2.7,3.3-2.7c1.7,0,3.6,1.3,3.6,4.3c0,0.6,0.1,3.4,0.1,4.1h-2.4c0-0.6,0-2.4,0-4.1c0-1.3-0.9-2.5-2.3-2.5
	s-2.3,1.3-2.3,2.7l0.1,3.9h-2.4V114L397.9,114L397.9,114L397.9,114z M415.1,122.5c-1.9,0.1-4-1-3.8-3.5l2.1,0.3
	c-0.1,1.1,0.3,1.9,1.6,1.9c1.8,0.1,2.3-1.9,0.9-2.4c-0.9-0.3-1.3-0.1-2.8-0.5c-1.3-0.3-1.8-1.6-1.6-2.4c0.2-1,1.4-2.3,3.3-2.3
	c2.1,0,3.6,0.9,3.6,2.8l-1.7,0.3c0-0.7-0.3-1.9-1.8-1.8c-0.9,0.1-1.3,0.7-1.3,1.1c-0.1,0.5,0.1,1.1,0.9,1.3c1.8,0.3,1.6,0.1,2.9,0.5
	c1.1,0.3,1.5,1.3,1.3,2.4C418.7,121.5,417,122.4,415.1,122.5z M420,117.9c0-2.7,1.8-4.2,4-4.3c3.1-0.1,4.6,2,4.6,4.5
	c0,3.3-2,4.5-4.2,4.5C421.6,122.6,420,120.6,420,117.9z M426.5,117.9c-0.1-2.1-0.7-3-2.4-3c-1.4,0-2.1,1.7-2.1,3
	c0,1.4,0.4,3.3,2.5,3.3C426.1,121.1,426.6,119.6,426.5,117.9z M438.3,114v8.2h-2.5l0.3-2.5c-0.3,1.3-1.5,2.7-3.3,2.7
	c-1.7,0-3-1.2-3-4.3l-0.1-4.1h2.3v4.1c0,1.3,0.4,2.5,1.8,2.5s2.3-0.9,2.2-4.1V114L438.3,114L438.3,114L438.3,114z M441.7,114
	l0.1,2.8c0.4-1.8,0.9-3,2.9-3.1c0.6-0.1,1.3,0.1,1.9,0.7c0.9,1,0.5,2.5,0.5,2.5l-2.4,0.6c0.5-1.1,0.2-2.1-0.8-1.9
	c-1.1,0.1-1.8,1.4-1.8,2.6v4h-2.4V114H441.7L441.7,114z M450.3,117.9c0,1.3,0.6,3,2.5,3.1c1.1,0,2.5-0.3,2.9-2.3l0.9,0.2
	c-0.2,2.5-2.1,3.6-4,3.6c-2.6,0-4.5-2-4.5-4.6c0-2.7,2-4.2,4.1-4.3c2.3-0.1,3.8,1.1,4.2,3l-0.8,0.3c-0.5-1.8-2.1-2.3-3.4-1.9
	C450.9,115.4,450.3,116.6,450.3,117.9z M466,118.4h-6.3c0.1,1.4,0.6,2.8,2.3,2.8c0.9,0.1,2.4-0.2,3-1.9l0.8,0.1
	c-0.2,1.9-1.7,3.1-3.8,3.1c-2.8,0-4.3-2.1-4.3-4.7c0-2.7,1.8-4.2,4-4.3C464.6,113.5,466.1,115.7,466,118.4z M461.6,114.9
	c-1.1,0.1-1.6,1.1-1.8,2.1h4.3C463.9,115.5,463.1,114.8,461.6,114.9z M467.3,121.1c0-0.6,0.6-1.2,1.3-1.2s1.2,0.6,1.2,1.2
	c0,0.7-0.6,1.3-1.2,1.3C467.9,122.3,467.3,121.8,467.3,121.1z M479.4,110.7c0.7,0,1.4,0,2.1,0.1c3.7,0.2,6,2.1,6,5.7s-2.3,5.6-6,5.7
	c-0.7,0-1.4,0.1-2.1,0.1c-0.8,0-1.6,0-2.3-0.1v-11.4C477.8,110.7,478.7,110.7,479.4,110.7z M485.1,116.5c0-2.5-1.3-4.3-3.6-4.6
	c-0.7-0.1-1.4-0.1-2.1-0.1v9.4c0.6,0.1,1.3,0.1,1.9,0C483.7,120.8,485.1,118.9,485.1,116.5z M488.5,117.9c0-2.7,1.8-4.2,4-4.3
	c3.1-0.1,4.6,2,4.6,4.5c0,3.3-2,4.5-4.2,4.5C490,122.6,488.5,120.6,488.5,117.9z M495,117.9c-0.1-2.1-0.7-3-2.4-3
	c-1.4,0-2.1,1.7-2.1,3c0,1.4,0.4,3.3,2.5,3.3C494.5,121.1,495.1,119.6,495,117.9z M501.8,119.5L501.8,119.5l-1.4-5.5H498
	c0.9,3.6,2.2,8.2,2.2,8.2h2.4c0.6-1.4,1.4-3.5,1.7-4.3c0.5,1.4,0.9,3.1,1.5,4.3h2.4c0,0,1.4-4.5,2.2-8.2H508l-1.3,5.5h-0.1L505,114
	h-1.8C502.8,116.2,501.8,119.5,501.8,119.5z M513.8,114l-0.1,2.5c0.3-1.3,1.4-2.7,3.3-2.7c1.7,0,3.6,1.3,3.6,4.3
	c0,0.6,0.1,3.4,0.1,4.1h-2.4c0-0.6,0-2.4,0-4.1c0-1.3-0.9-2.5-2.3-2.5c-1.4,0-2.3,1.3-2.3,2.7l0.1,3.9h-2.4V114h2.3v0H513.8z
	 M523.6,122.3c-1,0-1.6-0.8-1.6-1.8v-9.8h1.9c0.1,0,0,8.9,0,9.5c0.1,0.7,0.6,0.6,1.1,0.5l0.4,0.7C525.1,122,524.5,122.3,523.6,122.3
	z M526.3,117.9c0-2.7,1.8-4.2,4-4.3c3.1-0.1,4.6,2,4.6,4.5c0,3.3-2,4.5-4.2,4.5C527.9,122.6,526.3,120.6,526.3,117.9z M532.8,117.9
	c-0.1-2.1-0.7-3-2.4-3c-1.4,0-2.1,1.7-2.1,3c0,1.4,0.4,3.3,2.5,3.3C532.3,121.1,532.9,119.6,532.8,117.9z M535.6,118
	c0-3.1,1.9-4.3,3.6-4.3c1.8,0,3,1.4,3.3,2.6l-0.1-2.1h2.4l-0.1,7.9H542l0.3-1.9c-0.6,1.6-1.6,2.1-2.9,2.1
	C536.7,122.4,535.6,119.7,535.6,118z M542.4,118.4c0.1-1.6-0.8-2.8-2.3-2.8c-1.3,0-2.3,1.2-2.3,2.5c0,1.4,0.7,3.1,2.2,3.1
	C541.6,121.1,542.4,119.7,542.4,118.4z M546.1,118c0-3.1,1.9-4.3,3.6-4.3c1.8,0,3,1.3,3.2,2.7v-5.7h2.4v11.4h-2.8l0.3-1.9
	c-0.6,1.6-1.6,2.1-2.9,2.1C547.1,122.4,546.1,119.7,546.1,118z M552.9,118.4c0.1-1.6-0.8-2.8-2.3-2.8c-1.3,0-2.3,1.2-2.3,2.5
	c0,1.4,0.7,3.1,2.2,3.1C552,121.1,552.9,119.7,552.9,118.4z M568.2,113.5c-1.4,0-2.4,1.5-3.2,2.6c0.4-1.2,1.4-3.8,1.8-5.3
	c-0.4-0.2-1.5-0.2-2.1-0.2c-0.7,2.1-3.4,11.4-3.4,11.6h2.3l0.7-2.5c0.8-2.6,2.6-4.8,3.5-4.6c0.9,0.2,0.6,1.9-0.8,7.1h2.1
	c0.3-1,0.8-3.3,0.9-4.6C570.5,115.5,570.3,113.5,568.2,113.5z M578.8,117.5l-0.2,0.7l-5.1,0.3c-0.4,1.5-0.1,2.6,0.9,2.7
	s1.6-0.3,2.3-1.5l1.2,0.7c-1,1.8-2.3,3-4.2,2.4c-1.7-0.5-2.4-1.8-2.3-3.8c0.1-1.3,0.8-2.7,1.6-3.8c1-1.3,2.9-2.1,4.1-1.6
	C578.7,114.1,579.4,115.2,578.8,117.5z M576.5,115.1c-1-0.2-1.8,0.8-2.4,1.9l2.9-0.2C577.5,115.8,577.2,115.2,576.5,115.1z
	 M584.8,114l-2.4-0.3l-3,8.2l2.4,0.5c0.8-2.3,1.4-4.3,2.8-5.8c0.5-0.5,1.1-1.1,1.9-1.3c1.1-0.2,0.9,1,0.1,2.3l2.1,0.4
	c0.1-0.3,0.4-0.7,0.4-1.4c0.1-0.7,0.1-1.7-0.8-2.3c-1.7-1.1-3.6,0.6-4.8,2.3C584,115.8,584.9,114.1,584.8,114z M597.1,117.5
	l-0.2,0.7l-5.1,0.3c-0.4,1.5-0.1,2.6,0.9,2.7s1.6-0.3,2.3-1.5l1.2,0.7c-1,1.8-2.3,3-4.2,2.4c-1.7-0.5-2.4-1.8-2.3-3.8
	c0.1-1.3,0.8-2.7,1.6-3.8c1-1.3,2.9-2.1,4.1-1.6C597,114.1,597.8,115.2,597.1,117.5z M594.8,115.1c-1-0.2-1.8,0.8-2.4,1.9l2.9-0.2
	C595.8,115.8,595.6,115.2,594.8,115.1z M598.5,115.2c0-0.6,0.6-1.2,1.3-1.2s1.2,0.6,1.2,1.2c0,0.7-0.6,1.3-1.2,1.3
	S598.5,115.9,598.5,115.2z M598.5,121.1c0-0.6,0.6-1.2,1.3-1.2s1.2,0.6,1.2,1.2c0,0.7-0.6,1.3-1.2,1.3S598.5,121.8,598.5,121.1z"/>
<g class="st2">
	<path class="st1" d="M103.2,225c0.3,0,0.6,0,0.9,0c1.7,0.1,2.8,1,2.8,2.6c0,1.7-1.1,2.6-2.8,2.6c-0.3,0-0.6,0-1,0
		c-0.4,0-0.7,0-1.1,0V225C102.5,225,102.9,225,103.2,225z M105.8,227.7c0-1.1-0.6-2-1.7-2.1c-0.3,0-0.7,0-1,0v4.3c0.3,0,0.6,0,0.9,0
		C105.2,229.7,105.8,228.8,105.8,227.7z"/>
	<path class="st1" d="M111.2,228.6h-2.9c0,0.6,0.3,1.3,1.1,1.3c0.4,0,1.1-0.1,1.4-0.9l0.4,0.1c-0.1,0.9-0.8,1.5-1.8,1.5
		c-1.3,0-2-1-2-2.2c0-1.3,0.8-1.9,1.8-2C110.6,226.3,111.3,227.3,111.2,228.6z M109.2,226.9c-0.5,0-0.8,0.5-0.8,1h2
		C110.3,227.2,109.9,226.9,109.2,226.9z"/>
	<path class="st1" d="M113.4,230.5c-0.9,0-1.9-0.5-1.7-1.6l1,0.1c0,0.5,0.2,0.9,0.7,0.9c0.8,0,1-0.9,0.4-1.1
		c-0.4-0.1-0.6-0.1-1.3-0.2c-0.6-0.1-0.8-0.7-0.7-1.1c0.1-0.5,0.7-1.1,1.5-1.1c0.9,0,1.7,0.4,1.7,1.3l-0.8,0.1
		c0-0.3-0.1-0.9-0.8-0.8c-0.4,0-0.6,0.3-0.6,0.5c0,0.2,0,0.5,0.4,0.6c0.8,0.1,0.7,0,1.3,0.2c0.5,0.2,0.7,0.6,0.6,1.1
		C115,230,114.2,230.4,113.4,230.5z"/>
	<path class="st1" d="M115.8,225.6c0-0.3,0.3-0.6,0.6-0.6c0.3,0,0.6,0.3,0.6,0.6c0,0.3-0.3,0.6-0.6,0.6
		C116.1,226.2,115.8,225.9,115.8,225.6z M116.9,226.5v3.8h-1v-3.8H116.9z"/>
	<path class="st1" d="M117.8,230.8c0,0,0.3-0.2,0.3-0.2c0.5,0.6,0.9,0.6,1.3,0.6c0.9,0,1.2-0.7,1.2-1.7c-0.3,0.7-0.8,0.9-1.3,0.9
		c-1.2-0.1-1.9-1.2-1.9-2c0-1.5,0.9-2,1.7-2c0.8,0,1.4,0.5,1.5,1.1l0-1h1.1c0,1.3,0,3.2-0.1,3.8c-0.2,1.2-0.9,1.9-2.1,1.9
		C118.6,232.2,117.9,231.6,117.8,230.8z M120.7,228.6c0-0.8-0.4-1.3-1-1.3c-0.6,0-1,0.6-1,1.1c0,0.7,0.3,1.4,1,1.4
		C120.3,229.8,120.7,229.2,120.7,228.6z"/>
	<path class="st1" d="M123.4,226.5l0,1.1c0.1-0.6,0.7-1.2,1.5-1.2c0.8,0,1.6,0.6,1.6,2c0,0.3,0,1.6,0,1.9h-1.1c0-0.3,0-1.1,0-1.9
		c0-0.6-0.4-1.1-1.1-1.1c-0.7,0-1,0.6-1,1.3l0,1.8h-1.1v-3.8H123.4z"/>
	<path class="st1" d="M130.8,228.6h-2.9c0,0.6,0.3,1.3,1.1,1.3c0.4,0,1.1-0.1,1.4-0.9l0.4,0.1c-0.1,0.9-0.8,1.5-1.8,1.5
		c-1.3,0-2-1-2-2.2c0-1.3,0.8-1.9,1.8-2C130.2,226.3,130.8,227.3,130.8,228.6z M128.8,226.9c-0.5,0-0.8,0.5-0.8,1h2
		C129.8,227.2,129.5,226.9,128.8,226.9z"/>
	<path class="st1" d="M131.2,228.4c0-1.4,0.9-2,1.7-2c0.8,0,1.4,0.6,1.5,1.2V225l1.1,0v5.3h-1.3l0.1-0.9c-0.2,0.7-0.8,0.9-1.3,0.9
		C131.8,230.4,131.2,229.2,131.2,228.4z M134.4,228.6c0-0.8-0.4-1.3-1-1.3c-0.6,0-1,0.6-1,1.1c0,0.7,0.3,1.4,1,1.4
		C134,229.8,134.4,229.2,134.4,228.6z"/>
	<path class="st1" d="M140,229.6l0.1,0.7h-1.3V225l1.1,0l0,2.6c0.1-0.6,0.7-1.2,1.5-1.2c0.8,0,1.6,0.6,1.6,2c0,0.7-0.5,2-1.7,2
		C140.7,230.4,140.2,230.2,140,229.6z M142,228.4c0-0.6-0.4-1.1-1.1-1.1c-0.7,0-1,0.6-1,1.3c0,0.6,0.4,1.3,1.1,1.3
		C141.6,229.8,142,229.1,142,228.4z"/>
	<path class="st1" d="M145.5,232c-0.9,0-1.7-0.6-1.7-1.4c0,0,0.3-0.2,0.3-0.2c0.5,0.6,0.9,0.7,1.3,0.7c0.8,0,1.2-0.6,1.2-2
		c-0.1,0.6-0.7,1.2-1.5,1.2c-0.8,0-1.4-0.6-1.4-2c0-0.3,0-1.6,0-1.9h1.1v1.9c0,0.6,0.2,1.2,0.8,1.2c0.7,0,1-0.4,1-1.9v-1.1h1.1
		c0,1.3,0,2.5-0.2,3.8C147.4,231.5,146.5,232,145.5,232z"/>
	<path class="st1" d="M152.5,225l1.7,4h0l1.6-4h1.2v5.3h-1.1l0.1-3.4h0l-1.5,3.4h-0.9l-1.5-3.4h-0.1l0.1,3.4h-1.1V225H152.5z"/>
	<path class="st1" d="M157.9,228.4c0-1.4,0.9-2,1.7-2c0.8,0,1.4,0.6,1.5,1.2l0-1l1.1,0l0,3.6h-1.2l0.1-0.9c-0.2,0.7-0.8,0.9-1.3,0.9
		C158.4,230.4,157.9,229.2,157.9,228.4z M161.1,228.6c0-0.8-0.4-1.3-1-1.3c-0.6,0-1,0.6-1,1.1c0,0.7,0.3,1.4,1,1.4
		C160.7,229.8,161.1,229.2,161.1,228.6z"/>
	<path class="st1" d="M164.5,229c0,0.2,0.1,0.6,0.5,0.6c0.3,0,0.6-0.2,0.7-0.3l0.2,0.1c-0.3,0.7-0.8,1-1.5,0.9
		c-0.7-0.1-0.9-0.6-0.9-1.4v-1.6c0,0-0.7,0-0.7,0v-0.8l0.7,0c0,0,0-0.5,0.2-1.1h0.8c0,0,0,0.4,0,1.1h1.1v0.8h-1.1V229z"/>
	<path class="st1" d="M166.6,225.6c0-0.3,0.3-0.6,0.6-0.6c0.3,0,0.6,0.3,0.6,0.6c0,0.3-0.3,0.6-0.6,0.6
		C166.8,226.2,166.6,225.9,166.6,225.6z M167.7,226.5v3.8h-1v-3.8H167.7z"/>
	<path class="st1" d="M169.2,230.4c-0.5,0-0.7-0.3-0.7-0.8V225h0.9c0,0,0,4.1,0,4.4c0,0.3,0.3,0.3,0.5,0.2l0.2,0.3
		C169.9,230.2,169.6,230.4,169.2,230.4z"/>
	<path class="st1" d="M170.5,228.4c0-1.4,0.9-2,1.7-2c0.8,0,1.4,0.6,1.5,1.2V225l1.1,0v5.3h-1.3l0.1-0.9c-0.2,0.7-0.8,0.9-1.3,0.9
		C171,230.4,170.5,229.2,170.5,228.4z M173.6,228.6c0-0.8-0.4-1.3-1-1.3c-0.6,0-1,0.6-1,1.1c0,0.7,0.3,1.4,1,1.4
		C173.2,229.8,173.6,229.2,173.6,228.6z"/>
	<path class="st1" d="M175.2,228.4c0-1.4,0.9-2,1.7-2c0.8,0,1.4,0.6,1.5,1.2l0-1l1.1,0l0,3.6h-1.2l0.1-0.9c-0.2,0.7-0.8,0.9-1.3,0.9
		C175.7,230.4,175.2,229.2,175.2,228.4z M178.3,228.6c0-0.8-0.4-1.3-1-1.3c-0.6,0-1,0.6-1,1.1c0,0.7,0.3,1.4,1,1.4
		C177.9,229.8,178.3,229.2,178.3,228.6z"/>
	<path class="st1" d="M185.1,230.5c-1.2,0-2.4-0.6-2.2-2.2l1.2,0.2c-0.1,0.6,0.3,1.2,1,1.2c0.7,0,1.1-0.3,1.1-0.8
		c0-0.3-0.2-0.6-0.5-0.7c-0.6-0.2-0.8-0.1-1.7-0.3c-0.8-0.2-1-0.9-1-1.5c0.1-0.6,0.9-1.4,2-1.4c1.3,0,2.2,0.6,2.3,1.7l-1.1,0.2
		c0-0.5-0.2-1.1-1.2-1.1c-0.5,0-0.8,0.4-0.8,0.7c0,0.3,0.1,0.7,0.7,0.8c0.9,0.2,1,0.1,1.6,0.4c0.5,0.2,0.9,0.9,0.8,1.4
		C187.2,229.8,186.3,230.5,185.1,230.5z"/>
	<path class="st1" d="M189.7,229c0,0.2,0.1,0.6,0.5,0.6c0.3,0,0.6-0.2,0.7-0.3l0.2,0.1c-0.3,0.7-0.8,1-1.5,0.9s-0.9-0.6-0.9-1.4
		v-1.6c0,0-0.7,0-0.7,0v-0.8l0.7,0c0,0,0-0.5,0.2-1.1h0.8c0,0,0,0.4,0,1.1h1.1v0.8h-1.1V229z"/>
	<path class="st1" d="M195.4,228.6h-2.9c0,0.6,0.3,1.3,1.1,1.3c0.4,0,1.1-0.1,1.4-0.9l0.4,0.1c-0.1,0.9-0.8,1.5-1.8,1.5
		c-1.3,0-2-1-2-2.2c0-1.3,0.8-1.9,1.8-2C194.8,226.3,195.5,227.3,195.4,228.6z M193.4,226.9c-0.5,0-0.8,0.5-0.8,1h2
		C194.5,227.2,194.1,226.9,193.4,226.9z"/>
	<path class="st1" d="M196,225.6c0-0.3,0.3-0.6,0.6-0.6c0.3,0,0.6,0.3,0.6,0.6c0,0.3-0.3,0.6-0.6,0.6
		C196.3,226.2,196,225.9,196,225.6z M197.1,226.5v3.8h-1v-3.8H197.1z"/>
	<path class="st1" d="M198.9,226.5l0,1.1c0.1-0.6,0.7-1.2,1.5-1.2c0.8,0,1.6,0.6,1.6,2c0,0.3,0,1.6,0,1.9h-1.1c0-0.3,0-1.1,0-1.9
		c0-0.6-0.4-1.1-1.1-1.1c-0.7,0-1,0.6-1,1.3l0,1.8h-1.1v-3.8H198.9z"/>
	<path class="st1" d="M207.6,224.9c1.2,0,2.1,0.6,2.1,1.6c0,0.5-0.2,1-0.6,1.5c-0.6,0.6-0.9,0.9-1.8,1.5l2.3-0.2v1H206v-0.7
		c0.5-0.3,1.2-0.7,1.5-1c0.5-0.4,1.2-1.1,1.2-1.9c0-0.5-0.2-1.1-1-1.1s-1.3,0.8-0.6,1.8l-1,0.3c-0.3-0.4-0.4-0.9-0.3-1.3
		C205.9,225.5,206.7,225,207.6,224.9z"/>
	<path class="st1" d="M210.5,227.6c0-1.7,0.9-2.6,2.2-2.6c1.3,0,2.2,0.9,2.2,2.6c0,1.7-0.7,2.9-2.3,2.9S210.5,229.2,210.5,227.6z
		 M213.8,228.9c0.2-0.4,0.2-0.9,0.2-1.4c0-0.5-0.1-1.2-0.4-1.6c-0.2-0.3-0.4-0.5-0.8-0.5s-0.6,0.2-0.8,0.5c-0.3,0.4-0.4,1.1-0.4,1.6
		c0,0.4,0,0.9,0.2,1.4c0.2,0.5,0.5,0.8,1,0.8C213.3,229.8,213.6,229.4,213.8,228.9z"/>
	<path class="st1" d="M218.3,230.3h-1.1V226l-1.7,1.8v-1.1l1.7-1.7h1.1V230.3z"/>
	<path class="st1" d="M219.5,230c-0.3-0.3-0.5-0.6-0.5-1.1c0-0.4,0.1-0.6,0.3-0.9c0.2-0.2,0.5-0.4,0.8-0.5c-0.3-0.1-0.5-0.2-0.7-0.4
		c-0.2-0.2-0.3-0.5-0.3-0.8c0-0.4,0.1-0.7,0.4-1c0.3-0.3,0.7-0.4,1.3-0.4c0.6,0,1,0.1,1.3,0.4c0.3,0.3,0.4,0.6,0.4,1
		c0,0.3-0.1,0.6-0.3,0.8c-0.2,0.2-0.4,0.3-0.7,0.4c0.3,0.1,0.6,0.2,0.8,0.5c0.2,0.2,0.3,0.5,0.3,0.9c0,0.4-0.2,0.8-0.5,1.1
		c-0.3,0.3-0.8,0.4-1.4,0.4C220.3,230.4,219.9,230.3,219.5,230z M220,228.8c0,0.7,0.5,1.1,0.9,1.1c0.5,0,1-0.5,1-1.1
		c0-0.6-0.4-1.1-1-1.1C220.3,227.8,220,228.3,220,228.8z M220.1,226.4c0,0.6,0.3,1,0.9,1c0.6,0,0.9-0.4,0.9-1c0-0.5-0.3-0.9-0.9-0.9
		C220.4,225.4,220.1,225.8,220.1,226.4z"/>
</g>
<line class="st3" x1="-1.5" y1="0" x2="766.5" y2="0"/>
<path class="st1" d="M46,43.5c0-0.6,0.3-1.2,1-1.2c-0.4-0.1-2.3-0.6-2.7-0.8c0.1-0.5,0.2-0.8,0.3-1l6.2,1.6
	c-0.1,0.2-0.3,0.9-0.3,1.1c-0.1,0-0.9-0.3-1-0.4c0.2,0.2,0.8,0.6,0.6,1.5c-0.3,1.3-1.7,1.6-2.8,1.1C46.7,45.2,46,44.4,46,43.5z
	 M49.9,78.1l0.3-0.8c-0.3-1.5-0.6-2.9-1.8-3.6c-0.9-0.6-1.9-0.6-2.6-0.3c-1.2,0.5-1.3,2.3-1.1,2.8C44.7,76.1,49.9,78.1,49.9,78.1z
	 M50.1,57.4l0.1-0.9l-5.5-1.3l-0.2,0.9L50.1,57.4z M49.2,76.8l-3.7-1.6c-0.1-1,1.3-1.4,2.2-0.8C48.5,74.9,49.1,75.6,49.2,76.8z
	 M49.4,47.6c0.5,0.5,0.8,0.8,0.8,1.4c0,0.4-0.2,0.9-0.4,1.1c-0.3,0.3-0.8,0.6-1.1,0.5c-0.4-0.1-1-0.3-1.3-0.6
	c-0.5-0.4-1-1.1-1.2-1.6c-0.1-0.3-0.1-0.8,0-1.3L45.9,47l0.4-0.9c0.1,0.1,1.1,0.3,1.4,0.4c0.4,0.1,0.8,0.1,1.3,0.1s1-0.1,1.9-0.1
	l-0.2,0.9C50,47.6,50.4,47.6,49.4,47.6z M50.2,59.7l0.3-0.9c0,0-1.5-0.6-2.1-0.8c-0.8-0.3-1.9-0.3-2.1,0.4C46,59,46.2,59.3,46.8,60
	h-0.6L46,60.8c0.4,0.2,4,1.3,4,1.3l0.2-0.9c-0.3-0.1-2.1-0.8-2-0.8c-0.7-0.3-1.6-0.8-1.4-1.3c0.1-0.4,1.1-0.3,1.9,0.1
	C49.4,59.4,49.6,59.6,50.2,59.7z M50.3,53.8c0.4-1.3-0.1-2.1-1.3-2.8c-0.9-0.4-2.6-0.3-2.9,0.8c-0.3,1,0.6,2.3,1.6,2.7
	C48.8,55.2,49.9,54.6,50.3,53.8z M50.3,71.9c0.4-1.3-0.1-2.1-1.3-2.8c-0.9-0.4-2.6-0.3-2.9,0.8c-0.3,1,0.6,2.3,1.6,2.7
	C48.8,73.3,49.9,72.7,50.3,71.9z M48.7,64.3L48.7,64.3l-2.3-1.4l0.1-0.9l3.7,2.1l-0.1,1l-2.5,0.6v0.1l2.6,1.6l-0.2,1l-3.8-0.1l0.1-1
	l2.2,0.1v-0.1L46,65.7l0.1-0.7C46.2,65,48.7,64.3,48.7,64.3z M48.3,42.8c-0.4-0.1-1.3-0.3-1.5,0.3c-0.1,0.4,0.3,1,1,1.3
	c0.6,0.3,1.5,0.3,1.7-0.1C49.6,43.9,49.3,43,48.3,42.8z M49.5,53.3c-0.3,0.6-1,0.5-1.6,0.3c-0.9-0.4-1.3-0.9-1.1-1.5s1-0.6,1.6-0.4
	C49.1,52.1,49.9,52.7,49.5,53.3z M49.5,71.4c-0.3,0.6-1,0.5-1.6,0.3c-0.9-0.4-1.3-0.9-1.1-1.5s1-0.6,1.6-0.4
	C49.1,70.2,49.9,70.8,49.5,71.4z M48.9,49.6c0.3,0,0.6-0.1,0.7-0.3c0.1-0.3-0.6-0.9-0.9-1.1c-0.4-0.3-1.6-0.8-1.7-0.7
	c-0.1,0.1,0,0.3,0.1,0.5c0.3,0.6,0.3,0.8,0.9,1.2C48.2,49.4,48.6,49.6,48.9,49.6z"/>
<line class="st4" x1="560.5" y1="126.9" x2="599.1" y2="126.9"/>
</svg>
